<svg xmlns="http://www.w3.org/2000/svg" width="158" height="108" viewBox="0 0 158 108">
  <defs>
    <style>
      .cls-1 {
        fill: #e7e7e7;
      }

      .cls-1, .cls-3 {
        fill-rule: evenodd;
      }

      .cls-2 {
        fill: #ccc;
      }

      .cls-3 {
        fill: #777;
      }
    </style>
  </defs>
  <path class="cls-1" d="M7,4H151a3,3,0,0,1,3,3v94a3,3,0,0,1-3,3H7a3,3,0,0,1-3-3V7A3,3,0,0,1,7,4ZM6,17H152v85H6V17Z"/>
  <circle class="cls-2" cx="12.5" cy="10.5" r="2.5"/>
  <circle id="Ellipse_1_copy" data-name="Ellipse 1 copy" class="cls-2" cx="19.5" cy="10.5" r="2.5"/>
  <circle id="Ellipse_1_copy_2" data-name="Ellipse 1 copy 2" class="cls-2" cx="26.5" cy="10.5" r="2.5"/>
  <rect id="Rounded_Rectangle_1" data-name="Rounded Rectangle 1" class="cls-2" x="107" y="9" width="40" height="3" rx="1.5" ry="1.5"/>
  <path id="CART_59_00" data-name="CART   $59,00" class="cls-3" d="M31.462,59.069a4.766,4.766,0,0,0,4.945,5,4.554,4.554,0,0,0,4.664-3.432H38.438A2.166,2.166,0,0,1,36.379,61.9c-1.471,0-2.479-1.093-2.479-2.83s1.008-2.829,2.479-2.829A2.166,2.166,0,0,1,38.438,57.5h2.633a4.566,4.566,0,0,0-4.664-3.446A4.777,4.777,0,0,0,31.462,59.069ZM49.648,64h2.535l-3.558-9.833H45.852L42.294,64H44.8l0.588-1.737h3.67Zm-1.2-3.586H46.02l1.2-3.6Zm9.762-3.054a1.142,1.142,0,0,1-1.317,1.233H55.4V56.156h1.485A1.14,1.14,0,0,1,58.205,57.36Zm-5.2-3.194V64h2.4V60.288h0.574L58.023,64h2.7l-2.269-3.894a2.862,2.862,0,0,0,2.185-2.843c0-1.709-1.2-3.1-3.614-3.1h-4.02Zm8.538,1.919h2.605V64h2.4V56.086h2.605V54.167H61.546v1.919Zm20.936,9.133h0.9V64.084c2.213-.1,3.418-1.429,3.418-2.942,0-2.171-1.919-2.577-3.418-3V55.974a1.081,1.081,0,0,1,.714.98h2.563c-0.126-1.779-1.359-2.76-3.278-2.914V52.906h-0.9v1.135c-1.905.126-3.376,1.163-3.376,2.914,0,2.2,1.877,2.619,3.376,3.012v2.213A1.141,1.141,0,0,1,81.67,61.1H79.12c0.07,1.807,1.457,2.8,3.362,2.97v1.149Zm1.807-3.992a1,1,0,0,1-.91.994V60.232A1.114,1.114,0,0,1,84.289,61.227Zm-2.647-4.384a0.892,0.892,0,0,1,.841-0.939v1.947A1.131,1.131,0,0,1,81.642,56.842Zm7.207-3.082v6.093H91.16a1.132,1.132,0,0,1,1.191-.84,1.226,1.226,0,0,1,1.317,1.415,1.309,1.309,0,0,1-1.3,1.541,1.21,1.21,0,0,1-1.289-1.008H88.737C88.821,62.725,90.151,64,92.449,64a3.262,3.262,0,0,0,3.53-3.558c0-1.653-.854-3.348-3.082-3.348a2.566,2.566,0,0,0-1.877.7V55.862h4.37v-2.1H88.849ZM97.625,61a3.174,3.174,0,0,0,3.418,3.04c2.746,0,3.558-1.933,3.558-5.421,0-3.11-.812-5.085-3.726-5.085a3.233,3.233,0,0,0-3.516,3.418,2.952,2.952,0,0,0,3.1,3.264,2.44,2.44,0,0,0,2.031-.911c0,1.947-.35,2.8-1.359,2.8A1.2,1.2,0,0,1,99.838,61H97.625ZM101,58.327A1.367,1.367,0,1,1,102.289,57,1.218,1.218,0,0,1,101,58.327Zm4.966,7.788h1.569l1.779-4.538h-2.451Zm4.434-7.368c0,3.026,1.023,5.211,3.936,5.211s3.937-2.185,3.937-5.211c0-3-1.023-5.183-3.937-5.183S110.4,55.75,110.4,58.747Zm5.519,0c0,1.625-.168,2.97-1.583,2.97s-1.582-1.345-1.582-2.97c0-1.569.168-2.942,1.582-2.942S115.919,57.178,115.919,58.747Zm3.551,0c0,3.026,1.023,5.211,3.936,5.211s3.937-2.185,3.937-5.211c0-3-1.023-5.183-3.937-5.183S119.47,55.75,119.47,58.747Zm5.519,0c0,1.625-.168,2.97-1.583,2.97s-1.582-1.345-1.582-2.97c0-1.569.168-2.942,1.582-2.942S124.989,57.178,124.989,58.747Z"/>
</svg>
