<svg xmlns="http://www.w3.org/2000/svg" width="158" height="108" viewBox="0 0 158 108">
  <defs>
    <style>
      .cls-1 {
        fill: #e7e7e7;
      }

      .cls-1, .cls-6 {
        fill-rule: evenodd;
      }

      .cls-2 {
        fill: #ccc;
      }

      .cls-3 {
        fill: none;
      }

      .cls-3, .cls-4 {
        stroke: #777;
        stroke-width: 2px;
      }

      .cls-4, .cls-6 {
        fill: #fff;
      }

      .cls-5 {
        fill: #777;
      }
    </style>
  </defs>
  <path class="cls-1" d="M7,4H151a3,3,0,0,1,3,3v94a3,3,0,0,1-3,3H7a3,3,0,0,1-3-3V7A3,3,0,0,1,7,4ZM6,17H152v85H6V17Z"/>
  <circle class="cls-2" cx="12.5" cy="10.5" r="2.5"/>
  <circle id="Ellipse_1_copy" data-name="Ellipse 1 copy" class="cls-2" cx="19.5" cy="10.5" r="2.5"/>
  <circle id="Ellipse_1_copy_2" data-name="Ellipse 1 copy 2" class="cls-2" cx="26.5" cy="10.5" r="2.5"/>
  <rect id="Rounded_Rectangle_1" data-name="Rounded Rectangle 1" class="cls-2" x="107" y="9" width="40" height="3" rx="1.5" ry="1.5"/>
  <circle class="cls-3" cx="75" cy="51" r="9"/>
  <path class="cls-4" d="M62,50H88a0,0,0,0,1,0,0V68a6,6,0,0,1-6,6H68a6,6,0,0,1-6-6V50A0,0,0,0,1,62,50Z"/>
  <circle class="cls-5" cx="91" cy="50" r="6"/>
  <path id="_3" data-name="3" class="cls-6" d="M89.132,48.2h1.5a0.684,0.684,0,0,1,.7-0.72,0.623,0.623,0,0,1,.675.684c0,0.594-.5.72-1.026,0.72H90.7v1.251h0.288c0.8,0,1.152.234,1.152,0.819a0.685,0.685,0,0,1-.738.738,0.786,0.786,0,0,1-.855-0.855H89.051a2.1,2.1,0,0,0,2.4,2.134,1.912,1.912,0,0,0,2.17-1.9,1.536,1.536,0,0,0-1.107-1.584V49.45a1.49,1.49,0,0,0,.99-1.477,1.858,1.858,0,0,0-2.134-1.782A2,2,0,0,0,89.132,48.2Z"/>
</svg>
