<svg xmlns="http://www.w3.org/2000/svg" width="158" height="108" viewBox="0 0 158 108">
  <defs>
    <style>
      .cls-1 {
        fill: #e7e7e7;
      }

      .cls-1, .cls-6, .cls-7 {
        fill-rule: evenodd;
      }

      .cls-2 {
        fill: #ccc;
      }

      .cls-3 {
        fill: none;
      }

      .cls-3, .cls-4 {
        stroke: #777;
        stroke-width: 2px;
      }

      .cls-4, .cls-6 {
        fill: #fff;
      }

      .cls-5, .cls-7 {
        fill: #777;
      }
    </style>
  </defs>
  <path class="cls-1" d="M7,4H151a3,3,0,0,1,3,3v94a3,3,0,0,1-3,3H7a3,3,0,0,1-3-3V7A3,3,0,0,1,7,4ZM6,17H152v85H6V17Z"/>
  <circle class="cls-2" cx="12.5" cy="10.5" r="2.5"/>
  <circle id="Ellipse_1_copy" data-name="Ellipse 1 copy" class="cls-2" cx="19.5" cy="10.5" r="2.5"/>
  <circle id="Ellipse_1_copy_2" data-name="Ellipse 1 copy 2" class="cls-2" cx="26.5" cy="10.5" r="2.5"/>
  <rect id="Rounded_Rectangle_1" data-name="Rounded Rectangle 1" class="cls-2" x="107" y="9" width="40" height="3" rx="1.5" ry="1.5"/>
  <circle class="cls-3" cx="40" cy="51" r="9"/>
  <path class="cls-4" d="M27,50H53a0,0,0,0,1,0,0V68a6,6,0,0,1-6,6H33a6,6,0,0,1-6-6V50A0,0,0,0,1,27,50Z"/>
  <circle class="cls-5" cx="56" cy="50" r="6"/>
  <path id="_3" data-name="3" class="cls-6" d="M54.132,48.2h1.5a0.684,0.684,0,0,1,.7-0.72,0.623,0.623,0,0,1,.675.684c0,0.594-.5.72-1.026,0.72H55.7v1.251h0.288c0.8,0,1.152.234,1.152,0.819a0.685,0.685,0,0,1-.738.738,0.786,0.786,0,0,1-.855-0.855H54.051a2.1,2.1,0,0,0,2.4,2.134,1.912,1.912,0,0,0,2.17-1.9,1.536,1.536,0,0,0-1.107-1.584V49.45a1.49,1.49,0,0,0,.99-1.477,1.858,1.858,0,0,0-2.134-1.782A2,2,0,0,0,54.132,48.2Z"/>
  <path id="Shopping_Cart" data-name="Shopping Cart" class="cls-7" d="M73.15,52.118c0-2.116-3.124-1.62-3.124-2.719a0.56,0.56,0,0,1,.648-0.576,0.684,0.684,0,0,1,.729.657h1.665c-0.063-1.206-.99-1.891-2.368-1.891-1.323,0-2.3.666-2.3,1.864-0.018,2.242,3.142,1.611,3.142,2.782a0.629,0.629,0,0,1-.738.594,0.725,0.725,0,0,1-.783-0.72H68.378c0.045,1.278,1.107,1.954,2.467,1.954A2.035,2.035,0,0,0,73.15,52.118ZM74.6,54h1.539V51.272a0.968,0.968,0,1,1,1.927,0V54H79.6V51.065a1.891,1.891,0,0,0-1.909-2.143,1.853,1.853,0,0,0-1.549.729V47.338H74.6V54Zm10.96-2.512a2.611,2.611,0,1,0-2.629,2.584A2.478,2.478,0,0,0,85.564,51.488Zm-3.655,0a1.061,1.061,0,1,1,2.089,0,1.1,1.1,0,0,1-1.062,1.251A1.072,1.072,0,0,1,81.909,51.488Zm6.324-1.8V48.977H86.693v7.418h1.539V53.3a1.807,1.807,0,0,0,1.548.774A2.329,2.329,0,0,0,92,51.479,2.312,2.312,0,0,0,89.781,48.9,1.771,1.771,0,0,0,88.233,49.688Zm2.2,1.791a1.11,1.11,0,1,1-1.107-1.233A1.12,1.12,0,0,1,90.429,51.479Zm3.848-1.791V48.977H92.738v7.418h1.539V53.3a1.807,1.807,0,0,0,1.548.774,2.329,2.329,0,0,0,2.215-2.593A2.312,2.312,0,0,0,95.826,48.9,1.771,1.771,0,0,0,94.278,49.688Zm2.2,1.791a1.11,1.11,0,1,1-1.107-1.233A1.12,1.12,0,0,1,96.474,51.479ZM98.783,54h1.54V48.977h-1.54V54Zm0.774-5.546a0.837,0.837,0,1,0-.918-0.828A0.847,0.847,0,0,0,99.557,48.454ZM105.294,54h1.531V51.065a1.9,1.9,0,0,0-1.936-2.143,1.841,1.841,0,0,0-1.521.72V48.977h-1.54V54h1.54V51.272a0.968,0.968,0,1,1,1.926,0V54Zm2.273-2.521a2.329,2.329,0,0,0,2.215,2.593,1.776,1.776,0,0,0,1.548-.792v0.711a0.986,0.986,0,0,1-1.044,1.152,0.947,0.947,0,0,1-1.008-.621h-1.522a2.6,2.6,0,0,0,5.114-.531V48.977h-1.54v0.711a1.74,1.74,0,0,0-1.548-.783A2.312,2.312,0,0,0,107.567,51.479Zm3.763,0.009a1.121,1.121,0,0,1-1.1,1.242,1.135,1.135,0,0,1-1.1-1.251A1.106,1.106,0,1,1,111.33,51.488Zm4.372-.657a3.063,3.063,0,0,0,3.178,3.214,2.927,2.927,0,0,0,3-2.206h-1.693a1.392,1.392,0,0,1-1.323.81,1.835,1.835,0,0,1,0-3.637,1.392,1.392,0,0,1,1.323.81h1.693a2.935,2.935,0,0,0-3-2.215A3.07,3.07,0,0,0,115.7,50.831Zm7,0.648a2.327,2.327,0,0,0,2.206,2.593,1.776,1.776,0,0,0,1.557-.783V54h1.54V48.977h-1.54v0.711a1.748,1.748,0,0,0-1.548-.783A2.312,2.312,0,0,0,122.7,51.479Zm3.763,0.009a1.121,1.121,0,0,1-1.1,1.242,1.135,1.135,0,0,1-1.1-1.251A1.106,1.106,0,1,1,126.465,51.488Zm4.128,0.18a0.971,0.971,0,0,1,1.152-1.116h0.423v-1.63a1.872,1.872,0,0,0-1.575.891V48.977h-1.54V54h1.54V51.668Zm2.748,0.585A1.552,1.552,0,0,0,135.115,54H135.9V52.695h-0.549a0.379,0.379,0,0,1-.468-0.423V50.255h1.008V48.977h-1.008V47.752h-1.54v1.224h-0.612v1.278h0.612v2Z"/>
  <path id="_59_00" data-name="$59,00" class="cls-7" d="M69.992,71.219h0.9V70.084c2.213-.1,3.418-1.429,3.418-2.942,0-2.171-1.919-2.577-3.418-3V61.974a1.081,1.081,0,0,1,.714.98h2.563c-0.126-1.779-1.359-2.76-3.278-2.914V58.906h-0.9v1.135c-1.9.126-3.376,1.163-3.376,2.914,0,2.2,1.877,2.619,3.376,3.012v2.213A1.141,1.141,0,0,1,69.18,67.1H66.63c0.07,1.807,1.457,2.8,3.362,2.97v1.149ZM71.8,67.227a1,1,0,0,1-.91.995V66.232A1.114,1.114,0,0,1,71.8,67.227Zm-2.647-4.384a0.892,0.892,0,0,1,.84-0.939v1.947A1.131,1.131,0,0,1,69.152,62.842Zm7.207-3.082v6.093H78.67a1.132,1.132,0,0,1,1.191-.841,1.226,1.226,0,0,1,1.317,1.415,1.309,1.309,0,0,1-1.3,1.541,1.21,1.21,0,0,1-1.289-1.008H76.247C76.331,68.725,77.661,70,79.959,70a3.262,3.262,0,0,0,3.53-3.558c0-1.653-.854-3.348-3.082-3.348a2.566,2.566,0,0,0-1.877.7V61.862H82.9v-2.1H76.359ZM85.135,67a3.174,3.174,0,0,0,3.418,3.04c2.745,0,3.558-1.933,3.558-5.421,0-3.11-.812-5.085-3.726-5.085a3.234,3.234,0,0,0-3.516,3.418,2.952,2.952,0,0,0,3.1,3.264A2.441,2.441,0,0,0,90,65.308c0,1.947-.35,2.8-1.359,2.8A1.2,1.2,0,0,1,87.348,67H85.135Zm3.376-2.675A1.367,1.367,0,1,1,89.8,63,1.218,1.218,0,0,1,88.51,64.327Zm4.966,7.788h1.569l1.779-4.538H94.373Zm4.434-7.368c0,3.026,1.023,5.211,3.936,5.211s3.937-2.185,3.937-5.211c0-3-1.023-5.183-3.937-5.183S97.91,61.75,97.91,64.747Zm5.519,0c0,1.625-.168,2.97-1.583,2.97s-1.582-1.345-1.582-2.97c0-1.569.168-2.942,1.582-2.942S103.429,63.178,103.429,64.747Zm3.551,0c0,3.026,1.023,5.211,3.936,5.211s3.937-2.185,3.937-5.211c0-3-1.023-5.183-3.937-5.183S106.98,61.75,106.98,64.747Zm5.519,0c0,1.625-.168,2.97-1.583,2.97s-1.582-1.345-1.582-2.97c0-1.569.168-2.942,1.582-2.942S112.5,63.178,112.5,64.747Z"/>
</svg>
