<svg xmlns="http://www.w3.org/2000/svg" width="88" height="108" viewBox="0 0 88 108">
  <defs>
    <style>
      .cls-1, .cls-2 {
        fill: #e7e7e7;
      }

      .cls-1, .cls-5 {
        fill-rule: evenodd;
      }

      .cls-3 {
        fill: #ccc;
      }

      .cls-4, .cls-5 {
        fill: #9a9a9a;
      }
    </style>
  </defs>
  <path class="cls-1" d="M7,4H81a3,3,0,0,1,3,3v94a3,3,0,0,1-3,3H7a3,3,0,0,1-3-3V7A3,3,0,0,1,7,4ZM6,17H82v85H6V17Z"/>
  <rect class="cls-2" x="6" y="96" width="76" height="6"/>
  <rect id="Rounded_Rectangle_1" data-name="Rounded Rectangle 1" class="cls-3" x="24" y="9" width="40" height="3" rx="1.5" ry="1.5"/>
  <rect id="Rectangle_3_copy_3" data-name="Rectangle 3 copy 3" class="cls-4" x="6" y="17" width="38" height="79"/>
  <path id="Rectangle_3_copy_4" data-name="Rectangle 3 copy 4" class="cls-5" d="M62,21.98h9.99v2H62v-2Z"/>
  <path id="Rectangle_3_copy_5" data-name="Rectangle 3 copy 5" class="cls-5" d="M62,24.98h9.99v2H62v-2Z"/>
  <path id="Rectangle_3_copy_6" data-name="Rectangle 3 copy 6" class="cls-5" d="M62,27.98h9.99v2H62v-2Z"/>
</svg>
