<svg xmlns="http://www.w3.org/2000/svg" width="88" height="108" viewBox="0 0 88 108">
  <defs>
    <style>
      .cls-1, .cls-2 {
        fill: #e7e7e7;
      }

      .cls-1, .cls-4 {
        fill-rule: evenodd;
      }

      .cls-3 {
        fill: #ccc;
      }

      .cls-4 {
        fill: #9a9a9a;
      }
    </style>
  </defs>
  <path class="cls-1" d="M7,4H81a3,3,0,0,1,3,3v94a3,3,0,0,1-3,3H7a3,3,0,0,1-3-3V7A3,3,0,0,1,7,4ZM6,17H82v85H6V17Z"/>
  <rect class="cls-2" x="6" y="96" width="76" height="6"/>
  <rect id="Rounded_Rectangle_1" data-name="Rounded Rectangle 1" class="cls-3" x="24" y="9" width="40" height="3" rx="1.5" ry="1.5"/>
  <path id="Rectangle_3_copy_6" data-name="Rectangle 3 copy 6" class="cls-4" d="M31.979,40.565L57.435,66.021l-1.414,1.414L30.565,41.979Z"/>
  <path id="Rectangle_3_copy_7" data-name="Rectangle 3 copy 7" class="cls-4" d="M56.021,40.565L30.565,66.021l1.414,1.414L57.435,41.979Z"/>
</svg>
