<svg xmlns="http://www.w3.org/2000/svg" width="158" height="108" viewBox="0 0 158 108">
  <defs>
    <style>
      .cls-1 {
        fill: #e7e7e7;
      }

      .cls-1, .cls-5 {
        fill-rule: evenodd;
      }

      .cls-2 {
        fill: #ccc;
      }

      .cls-3 {
        fill: #e4e4e4;
      }

      .cls-4 {
        fill: #9a9a9a;
      }

      .cls-5 {
        fill: #777;
      }
    </style>
  </defs>
  <path class="cls-1" d="M7,4H151a3,3,0,0,1,3,3v94a3,3,0,0,1-3,3H7a3,3,0,0,1-3-3V7A3,3,0,0,1,7,4ZM6,17H152v85H6V17Z"/>
  <circle class="cls-2" cx="12.5" cy="10.5" r="2.5"/>
  <circle id="Ellipse_1_copy" data-name="Ellipse 1 copy" class="cls-2" cx="19.5" cy="10.5" r="2.5"/>
  <circle id="Ellipse_1_copy_2" data-name="Ellipse 1 copy 2" class="cls-2" cx="26.5" cy="10.5" r="2.5"/>
  <rect id="Rounded_Rectangle_1" data-name="Rounded Rectangle 1" class="cls-2" x="107" y="9" width="40" height="3" rx="1.5" ry="1.5"/>
  <rect id="Rectangle_3_copy_3" data-name="Rectangle 3 copy 3" class="cls-3" x="39" y="19" width="81" height="17"/>
  <rect id="Rectangle_3_copy" data-name="Rectangle 3 copy" class="cls-3" x="39" y="36" width="81" height="63"/>
  <rect id="Rectangle_3_copy_4" data-name="Rectangle 3 copy 4" class="cls-4" x="45" y="28" width="8" height="4"/>
  <rect id="Rectangle_3_copy_5" data-name="Rectangle 3 copy 5" class="cls-4" x="60" y="28" width="8" height="4"/>
  <rect id="Rectangle_3_copy_7" data-name="Rectangle 3 copy 7" class="cls-4" x="75" y="28" width="8" height="4"/>
  <path id="Shape_1_copy_2" data-name="Shape 1 copy 2" class="cls-5" d="M55.446,33.007l-0.453-.488,2.56-2.763,0.453,0.488Zm0-6.014-0.453.488,2.56,2.763,0.453-.488Z"/>
  <path id="Shape_1_copy_3" data-name="Shape 1 copy 3" class="cls-5" d="M70.446,33.007l-0.453-.488,2.56-2.763,0.453,0.488Zm0-6.014-0.453.488,2.56,2.763,0.453-.488Z"/>
  <rect id="Rectangle_3_copy_6" data-name="Rectangle 3 copy 6" class="cls-4" x="45" y="36" width="34" height="10"/>
</svg>
