<svg xmlns="http://www.w3.org/2000/svg" width="158" height="78" viewBox="0 0 158 78">
  <defs>
    <style>
      .cls-1 {
        fill: #e7e7e7;
      }

      .cls-1, .cls-3, .cls-4 {
        fill-rule: evenodd;
      }

      .cls-2 {
        fill: #ccc;
      }

      .cls-3 {
        fill: none;
        stroke: #777;
        stroke-width: 1px;
      }

      .cls-4 {
        fill: #777;
      }
    </style>
  </defs>
  <path class="cls-1" d="M7,4H151a3,3,0,0,1,3,3V71a3,3,0,0,1-3,3H7a3,3,0,0,1-3-3V7A3,3,0,0,1,7,4ZM6,17H152V72H6V17Z"/>
  <circle class="cls-2" cx="12.5" cy="10.5" r="2.5"/>
  <circle id="Ellipse_1_copy" data-name="Ellipse 1 copy" class="cls-2" cx="19.5" cy="10.5" r="2.5"/>
  <circle id="Ellipse_1_copy_2" data-name="Ellipse 1 copy 2" class="cls-2" cx="26.5" cy="10.5" r="2.5"/>
  <rect id="Rounded_Rectangle_1" data-name="Rounded Rectangle 1" class="cls-2" x="107" y="9" width="40" height="3" rx="1.5" ry="1.5"/>
  <path class="cls-3" d="M123.646,47.354l0.708-.707,4,4-0.708.707ZM120.5,40a4.5,4.5,0,1,1-4.5,4.5A4.5,4.5,0,0,1,120.5,40Z"/>
  <path class="cls-4" d="M101.354,47.354l-0.708-.707,7-7,0.708,0.707Z"/>
  <path id="Shape_1_copy" data-name="Shape 1 copy" class="cls-4" d="M107.646,47.354l0.708-.707-7-7-0.708.707Z"/>
  <path id="Search..." class="cls-4" d="M26.781,44.863c0-2.459-3.578-1.679-3.578-3.078a0.81,0.81,0,0,1,.959-0.82,0.921,0.921,0,0,1,1,.83H26.7a2.2,2.2,0,0,0-2.5-1.989c-1.439,0-2.459.759-2.459,2.019-0.01,2.529,3.588,1.619,3.588,3.128a0.9,0.9,0,0,1-1.049.85,0.958,0.958,0,0,1-1.059-.929h-1.5c0.02,1.319,1.139,2.079,2.589,2.079A2.2,2.2,0,0,0,26.781,44.863Zm3.5-2.459A1.23,1.23,0,0,1,31.6,43.594H28.973A1.286,1.286,0,0,1,30.282,42.4Zm2.629,2.738H31.4a1.141,1.141,0,0,1-1.109.67,1.3,1.3,0,0,1-1.329-1.279H33.01a3.269,3.269,0,0,0,.04-0.54,2.6,2.6,0,0,0-2.729-2.739,2.86,2.86,0,0,0,0,5.717A2.573,2.573,0,0,0,32.91,45.143Zm0.633-1.049a2.627,2.627,0,0,0,2.519,2.878,2.183,2.183,0,0,0,1.839-.9v0.81H39.31V41.345H37.9v0.79a2.189,2.189,0,0,0-1.829-.88A2.593,2.593,0,0,0,33.543,44.093Zm4.358,0.02a1.491,1.491,0,0,1-1.469,1.629,1.513,1.513,0,0,1-1.459-1.649A1.472,1.472,0,1,1,37.9,44.113Zm4.4,0.01a1.168,1.168,0,0,1,1.329-1.389H44V41.265a1.92,1.92,0,0,0-1.7.939v-0.86H40.9v5.537h1.4V44.123Zm2.241-.01a2.656,2.656,0,0,0,2.738,2.858,2.526,2.526,0,0,0,2.609-1.959H48.381a1.056,1.056,0,0,1-1.109.76c-0.779,0-1.3-.58-1.3-1.659s0.52-1.669,1.3-1.669a1.088,1.088,0,0,1,1.109.77H49.89a2.47,2.47,0,0,0-2.609-1.959A2.656,2.656,0,0,0,44.543,44.113Zm6.36,2.768h1.4V43.824a1.245,1.245,0,1,1,2.479,0v3.058h1.4V43.634a2.208,2.208,0,0,0-3.878-1.6V39.486H50.9v7.4Zm8.469-.75a0.86,0.86,0,1,0-.85.82A0.818,0.818,0,0,0,59.372,46.132Zm3,0a0.86,0.86,0,1,0-.85.82A0.818,0.818,0,0,0,62.372,46.132Zm3,0a0.86,0.86,0,1,0-.849.82A0.818,0.818,0,0,0,65.372,46.132Z"/>
  <rect class="cls-2" x="22" y="51" width="90" height="2"/>
</svg>
