<svg xmlns="http://www.w3.org/2000/svg" width="158" height="78" viewBox="0 0 158 78">
  <defs>
    <style>
      .cls-1 {
        fill: #e7e7e7;
      }

      .cls-1, .cls-4, .cls-5 {
        fill-rule: evenodd;
      }

      .cls-2 {
        fill: #222529;
        opacity: 0.7;
      }

      .cls-3 {
        fill: #ccc;
      }

      .cls-4 {
        fill: none;
        stroke: #f4f4f4;
        stroke-width: 1px;
      }

      .cls-5 {
        fill: #fff;
      }
    </style>
  </defs>
  <path class="cls-1" d="M7,4H151a3,3,0,0,1,3,3V71a3,3,0,0,1-3,3H7a3,3,0,0,1-3-3V7A3,3,0,0,1,7,4ZM6,17H152V72H6V17Z"/>
  <rect class="cls-2" x="7" y="18" width="144" height="53"/>
  <circle class="cls-3" cx="12.5" cy="10.5" r="2.5"/>
  <circle id="Ellipse_1_copy" data-name="Ellipse 1 copy" class="cls-3" cx="19.5" cy="10.5" r="2.5"/>
  <circle id="Ellipse_1_copy_2" data-name="Ellipse 1 copy 2" class="cls-3" cx="26.5" cy="10.5" r="2.5"/>
  <rect id="Rounded_Rectangle_1" data-name="Rounded Rectangle 1" class="cls-3" x="107" y="9" width="40" height="3" rx="1.5" ry="1.5"/>
  <path class="cls-4" d="M127.646,42.354l0.708-.707,4,4-0.708.707ZM124.5,35a4.5,4.5,0,1,1-4.5,4.5A4.5,4.5,0,0,1,124.5,35Z"/>
  <path id="Search..." class="cls-5" d="M29.022,45.727c0-2.794-4.049-1.716-4.049-3.443a1.085,1.085,0,0,1,1.287-1.067,1.2,1.2,0,0,1,1.287,1.012h1.386a2.331,2.331,0,0,0-2.607-2.079c-1.562,0-2.629.836-2.629,2.178,0,2.816,4.06,1.617,4.06,3.465a1.181,1.181,0,0,1-1.375,1.122,1.227,1.227,0,0,1-1.364-1.133H23.675c0,1.353,1.177,2.189,2.706,2.189A2.376,2.376,0,0,0,29.022,45.727Zm4.448-2.937a1.574,1.574,0,0,1,1.694,1.529H31.808A1.651,1.651,0,0,1,33.47,42.789Zm2.838,3.3H34.955a1.467,1.467,0,0,1-1.43.847A1.667,1.667,0,0,1,31.8,45.331h4.632a3.87,3.87,0,0,0,.044-0.616,2.827,2.827,0,0,0-2.949-2.981A2.9,2.9,0,0,0,30.5,44.858a2.941,2.941,0,0,0,3.025,3.136A2.77,2.77,0,0,0,36.308,46.09Zm1.246-1.254a2.93,2.93,0,0,0,2.838,3.157,2.609,2.609,0,0,0,2.123-1v0.9h1.265V41.832H42.516v0.88a2.58,2.58,0,0,0-2.1-.979A2.885,2.885,0,0,0,37.554,44.836Zm4.962,0.022A1.883,1.883,0,0,1,40.679,46.9a1.91,1.91,0,0,1-1.837-2.068,1.86,1.86,0,0,1,1.837-2.013A1.88,1.88,0,0,1,42.516,44.858Zm3.765-.154c0-1.287.572-1.672,1.5-1.672H48.1v-1.3a1.975,1.975,0,0,0-1.815.979v-0.88H45.027v6.062h1.254V44.7Zm2.383,0.154a2.9,2.9,0,0,0,2.97,3.136,2.723,2.723,0,0,0,2.794-2.013H53.076a1.384,1.384,0,0,1-1.441.957c-1.012,0-1.683-.748-1.683-2.079s0.671-2.068,1.683-2.068a1.417,1.417,0,0,1,1.441.957h1.353a2.637,2.637,0,0,0-2.794-2.013A2.9,2.9,0,0,0,48.664,44.858Zm7.473,3.036h1.254V44.506a1.531,1.531,0,1,1,3.047,0v3.389h1.243V44.319a2.337,2.337,0,0,0-2.409-2.585,2.4,2.4,0,0,0-1.881.8V39.753H56.137v8.141Zm8.353-.726a0.8,0.8,0,1,0-.792.8A0.791,0.791,0,0,0,64.49,47.168Zm3.055,0a0.8,0.8,0,1,0-.792.8A0.791,0.791,0,0,0,67.545,47.168Zm3.055,0a0.8,0.8,0,1,0-.792.8A0.791,0.791,0,0,0,70.6,47.168Z"/>
  <rect class="cls-3" x="23" y="53" width="114" height="2"/>
  <path class="cls-5" d="M140.354,29.354l-0.708-.707,7-7,0.708,0.707Z"/>
  <path id="Shape_1_copy" data-name="Shape 1 copy" class="cls-5" d="M146.646,29.354l0.708-.707-7-7-0.708.707Z"/>
</svg>
