<svg xmlns="http://www.w3.org/2000/svg" width="88" height="68" viewBox="0 0 88 68">
  <defs>
    <style>
      .cls-1 {
        fill: #e7e7e7;
      }

      .cls-2 {
        fill: #9a9a9a;
      }

      .cls-3 {
        fill: #fefefe;
        fill-rule: evenodd;
      }

      .cls-4 {
        fill: #828282;
      }
    </style>
  </defs>
  <rect class="cls-1" x="34" y="4" width="50" height="60"/>
  <rect id="Rectangle_3_copy" data-name="Rectangle 3 copy" class="cls-2" x="4" y="4" width="28" height="60"/>
  <path id="NAV" class="cls-3" d="M11.886,9.562v3.916L9.311,9.562H7.772v6.32H9.311v-3.9l2.575,3.9h1.54V9.562h-1.54Zm6.973,6.32h1.629L18.2,9.562H16.419l-2.287,6.32h1.611l0.378-1.116h2.359Zm-0.774-2.3H16.527L17.3,11.263Zm5.965,0.756L22.483,9.562H20.845l2.242,6.32h1.927l2.242-6.32h-1.63Z"/>
  <path id="NAV_copy_4" data-name="NAV copy 4" class="cls-3" d="M11.886,52.562v3.916L9.311,52.562H7.772v6.32H9.311v-3.9l2.575,3.9h1.54v-6.32h-1.54Zm6.973,6.32h1.629L18.2,52.562H16.419l-2.287,6.32h1.611l0.378-1.116h2.359Zm-0.774-2.3H16.527L17.3,54.263Zm5.965,0.756-1.566-4.771H20.845l2.242,6.32h1.927l2.242-6.32h-1.63Z"/>
  <rect id="Rectangle_3_copy_2" data-name="Rectangle 3 copy 2" class="cls-4" x="4" y="20" width="28" height="28"/>
  <path id="NAV_copy_2" data-name="NAV copy 2" class="cls-3" d="M13.363,26.269v3.478l-2.287-3.478H9.709v5.613h1.367V28.42l2.287,3.462h1.367V26.269H13.363Zm6.216,5.613h1.447L19,26.269H17.412l-2.031,5.613h1.431l0.336-.991h2.095Zm-0.688-2.047H17.508L18.2,27.78Zm5.32,0.672-1.391-4.238H21.366l1.991,5.613h1.711l1.991-5.613H25.611Z"/>
  <path id="NAV_copy_3" data-name="NAV copy 3" class="cls-3" d="M13.363,36.269v3.478l-2.287-3.478H9.709v5.613h1.367V38.42l2.287,3.462h1.367V36.269H13.363Zm6.216,5.613h1.447L19,36.269H17.412l-2.031,5.613h1.431l0.336-.991h2.095Zm-0.688-2.047H17.508L18.2,37.78Zm5.32,0.672-1.391-4.238H21.366l1.991,5.613h1.711l1.991-5.613H25.611Z"/>
</svg>
