<svg xmlns="http://www.w3.org/2000/svg" width="88" height="68" viewBox="0 0 88 68">
  <defs>
    <style>
      .cls-1 {
        fill: #e7e7e7;
      }

      .cls-2 {
        fill: #9a9a9a;
      }

      .cls-3 {
        fill: #fefefe;
        fill-rule: evenodd;
      }
    </style>
  </defs>
  <rect class="cls-1" x="34" y="4" width="50" height="60"/>
  <rect id="Rectangle_3_copy" data-name="Rectangle 3 copy" class="cls-2" x="4" y="4" width="28" height="60"/>
  <rect id="Rectangle_3_copy_2" data-name="Rectangle 3 copy 2" class="cls-2" x="35" y="14" width="28" height="40"/>
  <path id="NAV" class="cls-3" d="M11.886,30.562v3.916L9.311,30.562H7.772v6.32H9.311v-3.9l2.575,3.9h1.54v-6.32h-1.54Zm6.973,6.32h1.629L18.2,30.562H16.419l-2.287,6.32h1.611l0.378-1.116h2.359Zm-0.774-2.3H16.527L17.3,32.263Zm5.965,0.756-1.566-4.771H20.845l2.242,6.32h1.927l2.242-6.32h-1.63Z"/>
  <path id="NAV_copy" data-name="NAV copy" class="cls-3" d="M44.363,20.269v3.478l-2.287-3.478H40.709v5.613h1.367V22.42l2.287,3.462h1.367V20.269H44.363Zm6.216,5.613h1.447L50,20.269H48.412l-2.031,5.613h1.431l0.336-.991h2.095Zm-0.688-2.047H48.508L49.2,21.78Zm5.32,0.672-1.391-4.238H52.366l1.991,5.613h1.711l1.991-5.613H56.611Z"/>
  <path id="NAV_copy_2" data-name="NAV copy 2" class="cls-3" d="M44.363,31.269v3.478l-2.287-3.478H40.709v5.613h1.367V33.42l2.287,3.462h1.367V31.269H44.363Zm6.216,5.613h1.447L50,31.269H48.412l-2.031,5.613h1.431l0.336-.991h2.095Zm-0.688-2.047H48.508L49.2,32.78Zm5.32,0.672-1.391-4.238H52.366l1.991,5.613h1.711l1.991-5.613H56.611Z"/>
  <path id="NAV_copy_3" data-name="NAV copy 3" class="cls-3" d="M44.363,42.269v3.478l-2.287-3.478H40.709v5.613h1.367V44.42l2.287,3.462h1.367V42.269H44.363Zm6.216,5.613h1.447L50,42.269H48.412l-2.031,5.613h1.431l0.336-.991h2.095Zm-0.688-2.047H48.508L49.2,43.78Zm5.32,0.672-1.391-4.238H52.366l1.991,5.613h1.711l1.991-5.613H56.611Z"/>
</svg>
