<svg xmlns="http://www.w3.org/2000/svg" width="158" height="108" viewBox="0 0 158 108">
  <defs>
    <style>
      .cls-1 {
        fill: #e7e7e7;
      }

      .cls-1, .cls-3 {
        fill-rule: evenodd;
      }

      .cls-2 {
        fill: #ccc;
      }

      .cls-3 {
        fill: #777;
      }

      .cls-4 {
        fill: #fff;
        stroke: #777;
        stroke-width: 2px;
      }
    </style>
  </defs>
  <path class="cls-1" d="M7,4H151a3,3,0,0,1,3,3v94a3,3,0,0,1-3,3H7a3,3,0,0,1-3-3V7A3,3,0,0,1,7,4ZM6,17H152v85H6V17Z"/>
  <circle class="cls-2" cx="12.5" cy="10.5" r="2.5"/>
  <circle id="Ellipse_1_copy" data-name="Ellipse 1 copy" class="cls-2" cx="19.5" cy="10.5" r="2.5"/>
  <circle id="Ellipse_1_copy_2" data-name="Ellipse 1 copy 2" class="cls-2" cx="26.5" cy="10.5" r="2.5"/>
  <rect id="Rounded_Rectangle_1" data-name="Rounded Rectangle 1" class="cls-2" x="107" y="9" width="40" height="3" rx="1.5" ry="1.5"/>
  <path id="THEME_OPTIONS" data-name="THEME OPTIONS" class="cls-3" d="M46.288,56.224h2.231V63H50.57V56.224H52.8V54.581H46.288v1.643ZM58.985,63h2.051V54.581H58.985v3.3h-3.19v-3.3H53.744V63h2.051V59.534h3.19V63ZM67.9,54.581H62.744V63H67.9V61.357H64.795V59.51h2.746V57.927H64.795v-1.7H67.9V54.581ZM68.744,63h2.051V57.939L72.689,63h1.655l1.883-5.049V63h2.051V54.581H75.868l-2.339,5.829-2.363-5.829H68.744V63ZM84.9,54.581H79.744V63H84.9V61.357H81.795V59.51h2.746V57.927H81.795v-1.7H84.9V54.581Zm12.13,4.186a4.318,4.318,0,1,0-4.306,4.318A4.2,4.2,0,0,0,97.031,58.766Zm-6.536,0a2.235,2.235,0,1,1,2.231,2.447A2.185,2.185,0,0,1,90.495,58.766Zm9.3-.42V56.236h1.115a1.06,1.06,0,1,1,0,2.111H99.795Zm4.365-1.056c0-1.547-1.031-2.711-3.094-2.711H97.744V63h2.051V59.978h1.272C103.213,59.978,104.16,58.682,104.16,57.291Zm0.128-1.067h2.231V63h2.05V56.224H110.8V54.581h-6.512v1.643ZM111.744,63h2.05V54.581h-2.05V63Zm12.287-4.234a4.318,4.318,0,1,0-4.306,4.318A4.2,4.2,0,0,0,124.031,58.766Zm-6.536,0a2.235,2.235,0,1,1,2.23,2.447A2.185,2.185,0,0,1,117.5,58.766Zm12.73-4.186V59.8l-3.431-5.217h-2.05V63h2.05V57.807L130.225,63h2.05V54.581h-2.05Zm9.635,5.913c0-2.818-4.161-2.159-4.161-3.622a0.746,0.746,0,0,1,.863-0.768,0.912,0.912,0,0,1,.972.876h2.218c-0.084-1.607-1.319-2.519-3.154-2.519-1.763,0-3.07.887-3.07,2.483-0.024,2.986,4.185,2.147,4.185,3.706a0.838,0.838,0,0,1-.983.792,0.964,0.964,0,0,1-1.043-.959H133.5c0.06,1.7,1.475,2.6,3.286,2.6C138.757,63.084,139.86,61.909,139.86,60.493Z"/>
  <rect id="Rectangle_3_copy" data-name="Rectangle 3 copy" class="cls-4" x="22" y="48" width="18" height="18"/>
  <rect class="cls-4" x="17" y="53" width="18" height="18"/>
  <path id="_" data-name="" class="cls-3" d="M31.195,58.258a0.751,0.751,0,0,1,0,1.062l-6,6a0.751,0.751,0,0,1-1.062,0l-3-3a0.751,0.751,0,1,1,1.062-1.062l2.47,2.468,5.47-5.468a0.751,0.751,0,0,1,1.062,0h0Z"/>
</svg>
