<svg xmlns="http://www.w3.org/2000/svg" width="158" height="108" viewBox="0 0 158 108">
  <defs>
    <style>
      .cls-1 {
        fill: #e7e7e7;
      }

      .cls-1, .cls-5 {
        fill-rule: evenodd;
      }

      .cls-2 {
        fill: #ccc;
      }

      .cls-3 {
        fill: #e4e4e4;
      }

      .cls-4 {
        fill: #9a9a9a;
        stroke: #fff;
        stroke-width: 2px;
      }

      .cls-5 {
        fill: #fff;
      }
    </style>
  </defs>
  <path class="cls-1" d="M7,4H151a3,3,0,0,1,3,3v94a3,3,0,0,1-3,3H7a3,3,0,0,1-3-3V7A3,3,0,0,1,7,4ZM6,17H152v85H6V17Z"/>
  <circle class="cls-2" cx="12.5" cy="10.5" r="2.5"/>
  <circle id="Ellipse_1_copy" data-name="Ellipse 1 copy" class="cls-2" cx="19.5" cy="10.5" r="2.5"/>
  <circle id="Ellipse_1_copy_2" data-name="Ellipse 1 copy 2" class="cls-2" cx="26.5" cy="10.5" r="2.5"/>
  <rect id="Rounded_Rectangle_1" data-name="Rounded Rectangle 1" class="cls-2" x="107" y="9" width="40" height="3" rx="1.5" ry="1.5"/>
  <rect id="Rectangle_3_copy_3" data-name="Rectangle 3 copy 3" class="cls-3" x="39" y="19" width="81" height="12"/>
  <rect id="Rectangle_3_copy_5" data-name="Rectangle 3 copy 5" class="cls-3" x="39" y="88" width="81" height="12"/>
  <rect id="Rectangle_3_copy_2" data-name="Rectangle 3 copy 2" class="cls-3" x="39" y="51" width="81" height="6"/>
  <rect id="Rectangle_3_copy_4" data-name="Rectangle 3 copy 4" class="cls-3" x="39" y="59" width="81" height="27"/>
  <rect id="Rectangle_3_copy" data-name="Rectangle 3 copy" class="cls-4" x="11" y="31" width="137" height="45"/>
  <path id="title" class="cls-5" d="M20.5,51.106h2.231v6.776h2.051V51.106h2.231V49.462H20.5v1.643Zm7.516,6.776h2.051V49.462H28.017v8.419Zm3.6-6.776h2.231v6.776H35.9V51.106h2.231V49.462H31.621v1.643Zm7.516-1.643v8.419h4.737V56.3H41.188V49.462H39.137Zm11.217,0H45.2v8.419h5.157V56.239H47.248V54.392h2.747V52.809H47.248v-1.7h3.106V49.462Z"/>
  <path id="home_Page" data-name="home &gt; Page" class="cls-5" d="M91.2,55.882h1.367V50.269H91.2v2.2H89.077v-2.2H87.709v5.613h1.367V53.571H91.2v2.311Zm8.071-2.822a2.878,2.878,0,1,0-2.87,2.878A2.8,2.8,0,0,0,99.274,53.059Zm-4.358,0A1.49,1.49,0,1,1,96.4,54.69,1.457,1.457,0,0,1,94.917,53.059Zm4.873,2.822h1.367V52.508l1.264,3.374h1.1l1.256-3.366v3.366h1.367V50.269h-1.607l-1.56,3.886L101.4,50.269H99.789v5.613Zm10.478-5.613h-3.438v5.613h3.438v-1.1H108.2V53.555h1.831V52.5H108.2V51.364h2.071v-1.1Zm2.65,4.581h1.719l1.623-1.767-1.623-1.767h-1.719l1.631,1.767Zm7.439-2.071V51.372H121.1a0.707,0.707,0,1,1,0,1.407h-0.744Zm2.911-.7a1.8,1.8,0,0,0-2.063-1.807h-2.215v5.613h1.367V53.867H121.2A1.809,1.809,0,0,0,123.267,52.076Zm4.592,3.806h1.447l-2.031-5.613h-1.583l-2.031,5.613h1.432l0.335-.991h2.095Zm-0.687-2.047h-1.384l0.688-2.055Zm5.52-3.63a2.858,2.858,0,1,0,2.71,3.782V52.716h-2.974v1.008h1.735a1.345,1.345,0,0,1-1.359.991,1.479,1.479,0,0,1-1.575-1.647,1.441,1.441,0,0,1,1.463-1.6,1.175,1.175,0,0,1,1.1.576h1.511A2.49,2.49,0,0,0,132.692,50.2Zm6.855,0.064h-3.438v5.613h3.438v-1.1h-2.07V53.555h1.83V52.5h-1.83V51.364h2.07v-1.1Z"/>
</svg>
