<svg xmlns="http://www.w3.org/2000/svg" width="158" height="108" viewBox="0 0 158 108">
  <defs>
    <style>
      .cls-1 {
        fill: #e7e7e7;
      }

      .cls-1, .cls-5 {
        fill-rule: evenodd;
      }

      .cls-2 {
        fill: #ccc;
      }

      .cls-3 {
        fill: #e4e4e4;
      }

      .cls-4 {
        fill: #9a9a9a;
        stroke: #fff;
        stroke-width: 2px;
      }

      .cls-5 {
        fill: #fff;
      }
    </style>
  </defs>
  <path class="cls-1" d="M7,4H151a3,3,0,0,1,3,3v94a3,3,0,0,1-3,3H7a3,3,0,0,1-3-3V7A3,3,0,0,1,7,4ZM6,17H152v85H6V17Z"/>
  <circle class="cls-2" cx="12.5" cy="10.5" r="2.5"/>
  <circle id="Ellipse_1_copy" data-name="Ellipse 1 copy" class="cls-2" cx="19.5" cy="10.5" r="2.5"/>
  <circle id="Ellipse_1_copy_2" data-name="Ellipse 1 copy 2" class="cls-2" cx="26.5" cy="10.5" r="2.5"/>
  <rect id="Rounded_Rectangle_1" data-name="Rounded Rectangle 1" class="cls-2" x="107" y="9" width="40" height="3" rx="1.5" ry="1.5"/>
  <rect id="Rectangle_3_copy_3" data-name="Rectangle 3 copy 3" class="cls-3" x="39" y="19" width="81" height="12"/>
  <rect id="Rectangle_3_copy_5" data-name="Rectangle 3 copy 5" class="cls-3" x="39" y="88" width="81" height="12"/>
  <rect id="Rectangle_3_copy_2" data-name="Rectangle 3 copy 2" class="cls-3" x="39" y="51" width="81" height="6"/>
  <rect id="Rectangle_3_copy_4" data-name="Rectangle 3 copy 4" class="cls-3" x="39" y="59" width="81" height="27"/>
  <rect id="Rectangle_3_copy" data-name="Rectangle 3 copy" class="cls-4" x="11" y="31" width="137" height="45"/>
  <path id="page_title" data-name="page title" class="cls-5" d="M22.008,47.228V45.118h1.115a1.06,1.06,0,1,1,0,2.111H22.008Zm4.366-1.055c0-1.547-1.031-2.71-3.094-2.71H19.957v8.419h2.051V48.859h1.271C25.426,48.859,26.374,47.564,26.374,46.173Zm6.388,5.709h2.171l-3.046-8.419H29.512l-3.046,8.419h2.147l0.5-1.487h3.142Zm-1.032-3.07H29.656l1.031-3.082Zm8.28-5.445a4.288,4.288,0,1,0,4.066,5.673V47.132H39.615v1.511h2.6a2.017,2.017,0,0,1-2.039,1.487,2.218,2.218,0,0,1-2.363-2.471,2.162,2.162,0,0,1,2.195-2.4,1.763,1.763,0,0,1,1.655.863h2.267A3.737,3.737,0,0,0,40.011,43.367Zm10.283,0.1H45.137v8.419h5.157V50.239H47.188V48.392h2.746V46.809H47.188v-1.7h3.106V43.462ZM53.8,45.106h2.231v6.776h2.051V45.106h2.231V43.462H53.8v1.643Zm7.516,6.776h2.051V43.462H61.317v8.419Zm3.6-6.776h2.231v6.776H69.2V45.106h2.231V43.462H64.921v1.643Zm7.516-1.643v8.419h4.737V50.3H74.488V43.462H72.437Zm11.217,0H78.5v8.419h5.157V50.239H80.548V48.392h2.746V46.809H80.548v-1.7h3.106V43.462Z"/>
  <path id="home_Page" data-name="home &gt; Page" class="cls-5" d="M23.2,61.882h1.367V56.269H23.2v2.2H21.077v-2.2H19.709v5.613h1.367V59.571H23.2v2.311Zm8.071-2.822a2.878,2.878,0,1,0-2.87,2.878A2.8,2.8,0,0,0,31.274,59.059Zm-4.358,0A1.49,1.49,0,1,1,28.4,60.69,1.457,1.457,0,0,1,26.917,59.059Zm4.873,2.822h1.367V58.508l1.263,3.374h1.1l1.255-3.366v3.366h1.367V56.269H36.539L34.98,60.155,33.4,56.269H31.789v5.613Zm10.478-5.613H38.829v5.613h3.438v-1.1H40.2V59.555h1.831V58.5H40.2V57.364h2.071v-1.1Zm2.65,4.581h1.719l1.623-1.767-1.623-1.767H44.917l1.631,1.767Zm7.439-2.071V57.372H53.1a0.707,0.707,0,1,1,0,1.407H52.357Zm2.91-.7A1.8,1.8,0,0,0,53.2,56.269H50.989v5.613h1.367V59.867H53.2A1.809,1.809,0,0,0,55.267,58.076Zm4.592,3.806h1.447l-2.031-5.613H57.692l-2.031,5.613h1.431l0.336-.991h2.095Zm-0.688-2.047H57.788l0.688-2.055Zm5.52-3.63a2.858,2.858,0,1,0,2.71,3.782V58.716H64.428v1.008h1.735a1.345,1.345,0,0,1-1.359.991,1.479,1.479,0,0,1-1.575-1.647,1.442,1.442,0,0,1,1.463-1.6,1.176,1.176,0,0,1,1.1.576h1.511A2.492,2.492,0,0,0,64.692,56.2Zm6.856,0.064H68.109v5.613h3.438v-1.1H69.477V59.555h1.831V58.5H69.477V57.364h2.071v-1.1Z"/>
</svg>
