<svg xmlns="http://www.w3.org/2000/svg" width="158" height="108" viewBox="0 0 158 108">
  <defs>
    <style>
      .cls-1 {
        fill: #e7e7e7;
      }

      .cls-1, .cls-5 {
        fill-rule: evenodd;
      }

      .cls-2 {
        fill: #ccc;
      }

      .cls-3 {
        fill: #e4e4e4;
      }

      .cls-4 {
        fill: #9a9a9a;
        stroke: #fff;
        stroke-width: 2px;
      }

      .cls-5 {
        fill: #fff;
      }
    </style>
  </defs>
  <path class="cls-1" d="M7,4H151a3,3,0,0,1,3,3v94a3,3,0,0,1-3,3H7a3,3,0,0,1-3-3V7A3,3,0,0,1,7,4ZM6,17H152v85H6V17Z"/>
  <circle class="cls-2" cx="12.5" cy="10.5" r="2.5"/>
  <circle id="Ellipse_1_copy" data-name="Ellipse 1 copy" class="cls-2" cx="19.5" cy="10.5" r="2.5"/>
  <circle id="Ellipse_1_copy_2" data-name="Ellipse 1 copy 2" class="cls-2" cx="26.5" cy="10.5" r="2.5"/>
  <rect id="Rounded_Rectangle_1" data-name="Rounded Rectangle 1" class="cls-2" x="107" y="9" width="40" height="3" rx="1.5" ry="1.5"/>
  <rect id="Rectangle_3_copy_3" data-name="Rectangle 3 copy 3" class="cls-3" x="39" y="19" width="81" height="12"/>
  <rect id="Rectangle_3_copy_5" data-name="Rectangle 3 copy 5" class="cls-3" x="39" y="88" width="81" height="12"/>
  <rect id="Rectangle_3_copy_2" data-name="Rectangle 3 copy 2" class="cls-3" x="39" y="51" width="81" height="6"/>
  <rect id="Rectangle_3_copy_4" data-name="Rectangle 3 copy 4" class="cls-3" x="39" y="59" width="81" height="27"/>
  <rect id="Rectangle_3_copy" data-name="Rectangle 3 copy" class="cls-4" x="11" y="31" width="137" height="28"/>
  <path id="home_Page" data-name="home &gt; Page" class="cls-5" d="M24.2,47.882h1.367V42.269H24.2v2.2H22.077v-2.2H20.709v5.613h1.367V45.571H24.2v2.311Zm8.071-2.822a2.878,2.878,0,1,0-2.87,2.878A2.8,2.8,0,0,0,32.274,45.059Zm-4.358,0A1.49,1.49,0,1,1,29.4,46.69,1.457,1.457,0,0,1,27.917,45.059Zm4.873,2.822h1.367V44.508l1.263,3.374h1.1l1.255-3.366v3.366h1.367V42.269H37.539L35.98,46.155,34.4,42.269H32.789v5.613Zm10.478-5.613H39.829v5.613h3.438v-1.1H41.2V45.555h1.831V44.5H41.2V43.364h2.071v-1.1Zm2.65,4.581h1.719l1.623-1.767-1.623-1.767H45.917l1.631,1.767Zm7.439-2.071V43.372H54.1a0.707,0.707,0,1,1,0,1.407H53.357Zm2.91-.7A1.8,1.8,0,0,0,54.2,42.269H51.989v5.613h1.367V45.867H54.2A1.809,1.809,0,0,0,56.267,44.076Zm4.592,3.806h1.447l-2.031-5.613H58.692l-2.031,5.613h1.431l0.336-.991h2.095Zm-0.688-2.047H58.788l0.688-2.055Zm5.52-3.63a2.858,2.858,0,1,0,2.71,3.782V44.716H65.428v1.008h1.735a1.345,1.345,0,0,1-1.359.991,1.479,1.479,0,0,1-1.575-1.647,1.442,1.442,0,0,1,1.463-1.6,1.176,1.176,0,0,1,1.1.576h1.511A2.492,2.492,0,0,0,65.692,42.2Zm6.856,0.064H69.109v5.613h3.438v-1.1H70.477V45.555h1.831V44.5H70.477V43.364h2.071v-1.1Z"/>
</svg>
