<svg xmlns="http://www.w3.org/2000/svg" width="158" height="108" viewBox="0 0 158 108">
  <defs>
    <style>
      .cls-1 {
        fill: #e7e7e7;
      }

      .cls-1, .cls-4 {
        fill-rule: evenodd;
      }

      .cls-2 {
        fill: #ccc;
      }

      .cls-3 {
        fill: #e4e4e4;
      }

      .cls-4, .cls-5 {
        fill: #9a9a9a;
      }

      .cls-6 {
        fill: #bfbfbf;
      }
    </style>
  </defs>
  <path class="cls-1" d="M7,4H151a3,3,0,0,1,3,3v94a3,3,0,0,1-3,3H7a3,3,0,0,1-3-3V7A3,3,0,0,1,7,4ZM6,17H152v85H6V17Z"/>
  <circle class="cls-2" cx="12.5" cy="10.5" r="2.5"/>
  <circle id="Ellipse_1_copy" data-name="Ellipse 1 copy" class="cls-2" cx="19.5" cy="10.5" r="2.5"/>
  <circle id="Ellipse_1_copy_2" data-name="Ellipse 1 copy 2" class="cls-2" cx="26.5" cy="10.5" r="2.5"/>
  <rect id="Rounded_Rectangle_1" data-name="Rounded Rectangle 1" class="cls-2" x="107" y="9" width="40" height="3" rx="1.5" ry="1.5"/>
  <rect id="Rectangle_3_copy" data-name="Rectangle 3 copy" class="cls-3" x="39" y="20" width="81" height="80"/>
  <path id="Rectangle_3_copy_9" data-name="Rectangle 3 copy 9" class="cls-4" d="M83.85,53.435A1.452,1.452,0,0,0,81,53.041L75.2,73.166A1.436,1.436,0,0,0,76.6,75a1.449,1.449,0,0,0,1.393-1.043l5.8-20.125A1.428,1.428,0,0,0,83.85,53.435ZM72.975,58.428A1.452,1.452,0,0,0,70.5,57.412l-5.075,5.031a1.475,1.475,0,0,0,0,2.072L70.5,69.547a1.4,1.4,0,0,0,1.025.382,1.444,1.444,0,0,0,1.45-1.437,1.427,1.427,0,0,0-.425-1.017L68.5,63.46l4.05-4.015A1.3,1.3,0,0,0,72.975,58.428ZM94,63.46a1.427,1.427,0,0,0-.425-1.017L88.5,57.412a1.64,1.64,0,0,0-1.025-.421,1.444,1.444,0,0,0-1.45,1.438,1.427,1.427,0,0,0,.425,1.017L90.5,63.46l-4.05,4.015a1.564,1.564,0,0,0-.425,1.016A1.452,1.452,0,0,0,88.5,69.507l5.075-5.031A1.294,1.294,0,0,0,94,63.46Z"/>
  <rect id="Rectangle_3_copy_7" data-name="Rectangle 3 copy 7" class="cls-2" x="39" y="20" width="81" height="16"/>
  <rect id="Rectangle_3_copy_3" data-name="Rectangle 3 copy 3" class="cls-5" x="45" y="43" width="12" height="4"/>
  <rect id="Rectangle_3_copy_6" data-name="Rectangle 3 copy 6" class="cls-5" x="59" y="43" width="12" height="4"/>
  <rect id="Rectangle_3_copy_8" data-name="Rectangle 3 copy 8" class="cls-5" x="73" y="43" width="12" height="4"/>
  <rect class="cls-2" x="45" y="80" width="12" height="14"/>
  <rect id="Rectangle_3_copy_2" data-name="Rectangle 3 copy 2" class="cls-6" x="45" y="26" width="35" height="3"/>
  <rect id="Rectangle_3_copy_4" data-name="Rectangle 3 copy 4" class="cls-2" x="60" y="84" width="16" height="6"/>
  <rect id="Rectangle_3_copy_5" data-name="Rectangle 3 copy 5" class="cls-2" x="81" y="80" width="12" height="14"/>
  <rect id="Rectangle_3_copy_5-2" data-name="Rectangle 3 copy 5" class="cls-2" x="96" y="84" width="16" height="6"/>
</svg>
