<svg xmlns="http://www.w3.org/2000/svg" width="158" height="108" viewBox="0 0 158 108">
  <defs>
    <style>
      .cls-1 {
        fill: #e7e7e7;
      }

      .cls-1, .cls-6 {
        fill-rule: evenodd;
      }

      .cls-2 {
        fill: #ccc;
      }

      .cls-3 {
        fill: #bbb;
      }

      .cls-4 {
        fill: #f4f4f4;
      }

      .cls-5, .cls-6 {
        fill: #e4e4e4;
      }

      .cls-7 {
        fill: #9a9a9a;
      }
    </style>
  </defs>
  <path class="cls-1" d="M7,4H151a3,3,0,0,1,3,3v94a3,3,0,0,1-3,3H7a3,3,0,0,1-3-3V7A3,3,0,0,1,7,4ZM6,17H152v85H6V17Z"/>
  <circle class="cls-2" cx="12.5" cy="10.5" r="2.5"/>
  <rect class="cls-3" x="24" y="22" width="110" height="75" rx="4" ry="4"/>
  <rect id="Rectangle_3_copy" data-name="Rectangle 3 copy" class="cls-4" x="26" y="24" width="106" height="71"/>
  <circle id="Ellipse_1_copy" data-name="Ellipse 1 copy" class="cls-2" cx="19.5" cy="10.5" r="2.5"/>
  <circle id="Ellipse_1_copy_2" data-name="Ellipse 1 copy 2" class="cls-2" cx="26.5" cy="10.5" r="2.5"/>
  <rect id="Rounded_Rectangle_1" data-name="Rounded Rectangle 1" class="cls-2" x="107" y="9" width="40" height="3" rx="1.5" ry="1.5"/>
  <rect id="Rectangle_3_copy_3" data-name="Rectangle 3 copy 3" class="cls-5" x="29" y="26" width="100" height="9"/>
  <path id="Rectangle_3_copy_5" data-name="Rectangle 3 copy 5" class="cls-6" d="M29,82.21H129v10H29v-10Z"/>
  <rect id="Rectangle_3_copy-2" data-name="Rectangle 3 copy" class="cls-5" x="29" y="37" width="100" height="13"/>
  <rect id="Rectangle_3_copy_2" data-name="Rectangle 3 copy 2" class="cls-7" x="29" y="52" width="100" height="4"/>
  <rect id="Rectangle_3_copy_4" data-name="Rectangle 3 copy 4" class="cls-5" x="29" y="58" width="100" height="22"/>
</svg>
